<svg width="25" height="24" viewBox="0 0 25 24" fill="none" xmlns="http://www.w3.org/2000/svg">
<g id="Icons">
<g id="Icon">
<path fill-rule="evenodd" clip-rule="evenodd" d="M21.24 6.86011L22.5 15.2001C23.01 18.8501 20.5 22.1701 17.1 22.2001H7.83999C4.49999 22.2001 1.95999 18.8501 2.49999 15.2001L3.75999 6.86011C4.05912 4.10248 6.32867 1.97743 9.09999 1.86011H15.9C18.6713 1.97743 20.9409 4.10248 21.24 6.86011ZM17.13 20.6701C18.2037 20.6546 19.2165 20.1683 19.9 19.3401C20.8167 18.2544 21.2147 16.8231 20.99 15.4201L19.76 7.08011C19.5844 5.04439 17.9399 3.44683 15.9 3.33011H9.09999C7.06005 3.44683 5.41563 5.04439 5.23999 7.08011L4.00999 15.4201C3.7853 16.8231 4.18329 18.2544 5.09999 19.3401C5.7835 20.1683 6.79626 20.6546 7.86999 20.6701H17.13Z" fill="#FBFBFB"/>
<path d="M15.65 7.06011C15.2358 7.06011 14.9 7.39589 14.9 7.81011C14.9 9.13559 13.8255 10.2101 12.5 10.2101C11.1745 10.2101 10.1 9.13559 10.1 7.81011C10.1 7.39589 9.7642 7.06011 9.34999 7.06011C8.93578 7.06011 8.59999 7.39589 8.59999 7.81011C8.59999 9.20344 9.34333 10.4909 10.55 11.1876C11.7567 11.8843 13.2433 11.8843 14.45 11.1876C15.6567 10.4909 16.4 9.20344 16.4 7.81011C16.3946 7.39815 16.062 7.06549 15.65 7.06011Z" fill="#FBFBFB"/>
</g>
</g>
</svg>
