<svg width="251" height="57" viewBox="0 0 251 57" fill="none" xmlns="http://www.w3.org/2000/svg">
<path d="M27.8308 53.0234V44.4516H24.6146V42.3553H33.5597V44.4516H30.3435V53.0234H27.8308ZM34.7019 42.3697H36.9561V46.2607C37.3869 45.6577 38.1766 45.3562 39.3252 45.3562C40.2058 45.3562 40.919 45.6433 41.4646 46.2177C42.0198 46.792 42.2974 47.5147 42.2974 48.3857V53.0522L40 53.0234V48.8021C40 48.3522 39.8708 47.9885 39.6124 47.7109C39.3539 47.4333 39.0045 47.2897 38.5642 47.2802C38.3441 47.2802 38.1383 47.3232 37.9468 47.4094C37.765 47.486 37.607 47.596 37.473 47.7396C37.339 47.8736 37.2337 48.0412 37.1571 48.2422C37.0805 48.4432 37.0423 48.6586 37.0423 48.8883L37.0279 53.0522L34.7019 53.0234V42.3697ZM45.6265 47.8976H48.7853C48.7662 47.6391 48.6083 47.4381 48.3115 47.2945C48.0244 47.1509 47.651 47.0792 47.1916 47.0792C46.3684 47.0792 45.8467 47.352 45.6265 47.8976ZM43.2287 49.1037C43.2287 48.1082 43.5255 47.2658 44.1189 46.5766C44.8656 45.696 45.8946 45.2557 47.2059 45.2557C47.6654 45.2557 48.1009 45.3179 48.5125 45.4423C48.9337 45.5668 49.307 45.7582 49.6325 46.0167C49.9675 46.2655 50.2499 46.567 50.4796 46.9212C50.7189 47.2658 50.8912 47.6774 50.9965 48.156C51.1114 48.6251 51.1449 49.1372 51.097 49.6923L45.5978 49.678C45.617 49.879 45.6744 50.0609 45.7701 50.2236C45.8754 50.3863 46.0046 50.5203 46.1578 50.6256C46.3109 50.7213 46.4785 50.7979 46.6603 50.8554C46.8518 50.9128 47.0576 50.9463 47.2777 50.9559C47.4596 50.9654 47.6367 50.9415 47.809 50.8841C47.9813 50.8266 48.1249 50.7548 48.2397 50.6687C48.3546 50.5825 48.4551 50.4964 48.5412 50.4103C48.637 50.3145 48.704 50.238 48.7423 50.1805C48.7805 50.1231 48.7997 50.0896 48.7997 50.08L50.7811 51.0994C50.4557 51.7025 49.9723 52.1859 49.3309 52.5496C48.6896 52.9038 47.9765 53.0713 47.1916 53.0522C46.1865 53.033 45.3298 52.7458 44.6215 52.1907C43.693 51.4536 43.2287 50.4246 43.2287 49.1037ZM61.1285 50.7692C61.3966 50.7692 61.6454 50.7501 61.8752 50.7118C62.1145 50.6735 62.3203 50.6256 62.4926 50.5682C62.6649 50.5012 62.8228 50.4294 62.9664 50.3528C63.11 50.2667 63.2296 50.1805 63.3253 50.0944C63.4211 49.9986 63.5072 49.9077 63.5838 49.8216C63.6604 49.7258 63.7178 49.6349 63.7561 49.5488C63.8039 49.4626 63.8422 49.3908 63.8709 49.3334C63.8997 49.2664 63.9188 49.2137 63.9284 49.1754C63.938 49.1276 63.9427 49.1037 63.9427 49.1037L66.2831 50.08C66.197 50.3863 66.0773 50.6735 65.9242 50.9415C65.771 51.2095 65.5556 51.4871 65.278 51.7743C65.01 52.0519 64.6941 52.2912 64.3304 52.4922C63.9667 52.6836 63.512 52.8464 62.9664 52.9804C62.4208 53.1048 61.8177 53.167 61.1573 53.167C59.53 53.167 58.1851 52.6597 57.1226 51.6451C56.0697 50.6208 55.5432 49.319 55.5432 47.7396C55.5432 46.1985 56.0553 44.9159 57.0795 43.8916C58.1325 42.8387 59.4917 42.3122 61.1573 42.3122C62.3538 42.3122 63.3923 42.5563 64.273 43.0445C65.1536 43.5327 65.7902 44.1884 66.1826 45.0116L64.0432 46.2464C63.6125 45.1839 62.6553 44.6526 61.1716 44.6526C60.7026 44.6526 60.2766 44.7196 59.8937 44.8536C59.5109 44.9876 59.1854 45.1839 58.9174 45.4423C58.6494 45.7008 58.4388 46.0214 58.2856 46.4043C58.142 46.7872 58.0702 47.2227 58.0702 47.7109C58.0702 48.6586 58.3526 49.4052 58.9174 49.9508C59.4917 50.4964 60.2288 50.7692 61.1285 50.7692ZM71.6706 50.9989C72.0247 50.9989 72.3406 50.9176 72.6182 50.7548C72.9054 50.5921 73.1255 50.372 73.2787 50.0944C73.4318 49.8072 73.5084 49.4865 73.5084 49.1324C73.5084 48.5963 73.3361 48.1512 72.9915 47.7971C72.6469 47.4429 72.2066 47.2658 71.6706 47.2658C71.125 47.2658 70.6751 47.4429 70.3209 47.7971C69.9667 48.1512 69.7897 48.5963 69.7897 49.1324C69.7897 49.4004 69.8327 49.6493 69.9189 49.879C70.0146 50.1087 70.1438 50.305 70.3066 50.4677C70.4788 50.6304 70.6799 50.7596 70.9096 50.8554C71.1393 50.9511 71.393 50.9989 71.6706 50.9989ZM71.5414 45.2126C72.3454 45.2126 73.0537 45.3801 73.6664 45.7151C74.2885 46.0406 74.7719 46.5048 75.1165 47.1079C75.4611 47.7109 75.6334 48.4001 75.6334 49.1754C75.6334 49.9508 75.4611 50.64 75.1165 51.243C74.7719 51.8461 74.2885 52.3151 73.6664 52.6501C73.0442 52.9756 72.3358 53.1383 71.5414 53.1383C70.4884 53.1383 69.5934 52.8464 68.8564 52.2625C67.9279 51.5158 67.4636 50.4868 67.4636 49.1754C67.4636 48.1512 67.7604 47.285 68.3538 46.5766C69.1196 45.6673 70.1821 45.2126 71.5414 45.2126ZM76.789 53.0234L76.8034 49.0749C76.8034 48.5868 76.8513 48.1369 76.947 47.7253C77.0427 47.3137 77.1719 46.9691 77.3346 46.6915C77.4974 46.4139 77.6888 46.1698 77.909 45.9592C78.1387 45.7486 78.3637 45.5859 78.5838 45.471C78.804 45.3562 79.0385 45.2605 79.2874 45.1839C79.5362 45.1073 79.7468 45.0594 79.9191 45.0403C80.101 45.0212 80.2733 45.0116 80.436 45.0116C81.5177 45.0116 82.3935 45.3131 83.0636 45.9161C83.7336 46.5192 84.0686 47.2897 84.0686 48.2278V53.0234H81.8144V48.6442C81.8144 48.1847 81.6947 47.8306 81.4554 47.5817C81.2257 47.3328 80.9003 47.2084 80.4791 47.2084C80.2685 47.2084 80.0723 47.2419 79.8904 47.3089C79.7181 47.3663 79.565 47.4573 79.4309 47.5817C79.2969 47.7061 79.1916 47.8641 79.1151 48.0555C79.0481 48.247 79.0146 48.4623 79.0146 48.7016V53.0234H76.789ZM86.3441 50.5251V47.2084L84.8652 47.194L84.8939 45.227H86.4015V43.6763L88.5839 42.2261L88.5552 45.1552L90.5654 45.1695V47.2227H88.5696V49.6923C88.56 50.0752 88.5935 50.348 88.6701 50.5108C88.7467 50.6735 88.8902 50.774 89.1008 50.8123C89.2923 50.8506 89.4933 50.8314 89.7039 50.7548C89.924 50.6687 90.0868 50.5538 90.1921 50.4103C90.2399 50.5155 90.3021 50.64 90.3787 50.7836C90.4649 50.9271 90.5941 51.1377 90.7664 51.4153C90.9387 51.6929 91.0918 51.9466 91.2258 52.1763C91.1205 52.4348 90.843 52.6501 90.3931 52.8224C89.9527 52.9851 89.4789 53.0665 88.9716 53.0665C88.3686 53.0665 87.8421 52.9134 87.3922 52.6071C86.703 52.1284 86.3536 51.4345 86.3441 50.5251ZM93.7791 47.8976H96.9379C96.9188 47.6391 96.7608 47.4381 96.4641 47.2945C96.1769 47.1509 95.8036 47.0792 95.3442 47.0792C94.521 47.0792 93.9993 47.352 93.7791 47.8976ZM91.3813 49.1037C91.3813 48.1082 91.678 47.2658 92.2715 46.5766C93.0181 45.696 94.0471 45.2557 95.3585 45.2557C95.818 45.2557 96.2535 45.3179 96.6651 45.4423C97.0863 45.5668 97.4596 45.7582 97.7851 46.0167C98.1201 46.2655 98.4025 46.567 98.6322 46.9212C98.8715 47.2658 99.0438 47.6774 99.1491 48.156C99.2639 48.6251 99.2974 49.1372 99.2496 49.6923L93.7504 49.678C93.7696 49.879 93.827 50.0609 93.9227 50.2236C94.028 50.3863 94.1572 50.5203 94.3104 50.6256C94.4635 50.7213 94.631 50.7979 94.8129 50.8554C95.0044 50.9128 95.2102 50.9463 95.4303 50.9559C95.6122 50.9654 95.7893 50.9415 95.9616 50.8841C96.1339 50.8266 96.2774 50.7548 96.3923 50.6687C96.5072 50.5825 96.6077 50.4964 96.6938 50.4103C96.7896 50.3145 96.8566 50.238 96.8948 50.1805C96.9331 50.1231 96.9523 50.0896 96.9523 50.08L98.9337 51.0994C98.6083 51.7025 98.1249 52.1859 97.4835 52.5496C96.8422 52.9038 96.1291 53.0713 95.3442 53.0522C94.3391 53.033 93.4824 52.7458 92.7741 52.1907C91.8456 51.4536 91.3813 50.4246 91.3813 49.1037ZM100.304 53.0234L100.319 49.0749C100.319 48.5868 100.367 48.1369 100.462 47.7253C100.558 47.3137 100.687 46.9691 100.85 46.6915C101.013 46.4139 101.204 46.1698 101.424 45.9592C101.654 45.7486 101.879 45.5859 102.099 45.471C102.319 45.3562 102.554 45.2605 102.803 45.1839C103.052 45.1073 103.262 45.0594 103.435 45.0403C103.616 45.0212 103.789 45.0116 103.951 45.0116C105.033 45.0116 105.909 45.3131 106.579 45.9161C107.249 46.5192 107.584 47.2897 107.584 48.2278V53.0234H105.33V48.6442C105.33 48.1847 105.21 47.8306 104.971 47.5817C104.741 47.3328 104.416 47.2084 103.995 47.2084C103.784 47.2084 103.588 47.2419 103.406 47.3089C103.234 47.3663 103.08 47.4573 102.946 47.5817C102.812 47.7061 102.707 47.8641 102.63 48.0555C102.563 48.247 102.53 48.4623 102.53 48.7016V53.0234H100.304ZM109.859 50.5251V47.2084L108.381 47.194L108.409 45.227H109.917V43.6763L112.099 42.2261L112.071 45.1552L114.081 45.1695V47.2227H112.085V49.6923C112.075 50.0752 112.109 50.348 112.186 50.5108C112.262 50.6735 112.406 50.774 112.616 50.8123C112.808 50.8506 113.009 50.8314 113.219 50.7548C113.439 50.6687 113.602 50.5538 113.707 50.4103C113.755 50.5155 113.818 50.64 113.894 50.7836C113.98 50.9271 114.11 51.1377 114.282 51.4153C114.454 51.6929 114.607 51.9466 114.741 52.1763C114.636 52.4348 114.358 52.6501 113.908 52.8224C113.468 52.9851 112.994 53.0665 112.487 53.0665C111.884 53.0665 111.358 52.9134 110.908 52.6071C110.218 52.1284 109.869 51.4345 109.859 50.5251ZM122.826 44.2219H121.089V47.8258H122.826C123.171 47.8258 123.497 47.7827 123.803 47.6966C124.109 47.6008 124.372 47.4764 124.593 47.3232C124.822 47.1605 124.999 46.9691 125.124 46.7489C125.258 46.5192 125.325 46.2751 125.325 46.0167C125.325 45.8156 125.282 45.6194 125.196 45.428C125.119 45.2365 125.004 45.069 124.851 44.9254C124.698 44.7818 124.516 44.6574 124.305 44.5521C124.104 44.4373 123.875 44.3559 123.616 44.308C123.367 44.2506 123.104 44.2219 122.826 44.2219ZM123.3 49.9364H121.147V52.9947H118.734V42.3266H123.329C123.961 42.3266 124.545 42.4223 125.081 42.6138C125.626 42.8052 126.091 43.0684 126.473 43.4035C126.856 43.7289 127.153 44.1309 127.364 44.6096C127.584 45.0786 127.694 45.5859 127.694 46.1315C127.694 46.8686 127.507 47.529 127.134 48.1129C126.77 48.6873 126.253 49.1372 125.583 49.4626C124.913 49.7785 124.152 49.9364 123.3 49.9364ZM130.611 47.8976H133.77C133.751 47.6391 133.593 47.4381 133.296 47.2945C133.009 47.1509 132.636 47.0792 132.176 47.0792C131.353 47.0792 130.831 47.352 130.611 47.8976ZM128.213 49.1037C128.213 48.1082 128.51 47.2658 129.104 46.5766C129.85 45.696 130.879 45.2557 132.191 45.2557C132.65 45.2557 133.086 45.3179 133.497 45.4423C133.918 45.5668 134.292 45.7582 134.617 46.0167C134.952 46.2655 135.235 46.567 135.464 46.9212C135.704 47.2658 135.876 47.6774 135.981 48.156C136.096 48.6251 136.13 49.1372 136.082 49.6923L130.582 49.678C130.602 49.879 130.659 50.0609 130.755 50.2236C130.86 50.3863 130.989 50.5203 131.142 50.6256C131.296 50.7213 131.463 50.7979 131.645 50.8554C131.836 50.9128 132.042 50.9463 132.262 50.9559C132.444 50.9654 132.621 50.9415 132.794 50.8841C132.966 50.8266 133.11 50.7548 133.224 50.6687C133.339 50.5825 133.44 50.4964 133.526 50.4103C133.622 50.3145 133.689 50.238 133.727 50.1805C133.765 50.1231 133.784 50.0896 133.784 50.08L135.766 51.0994C135.44 51.7025 134.957 52.1859 134.316 52.5496C133.674 52.9038 132.961 53.0713 132.176 53.0522C131.171 53.033 130.314 52.7458 129.606 52.1907C128.678 51.4536 128.213 50.4246 128.213 49.1037ZM139.52 47.8976H142.679C142.66 47.6391 142.502 47.4381 142.205 47.2945C141.918 47.1509 141.544 47.0792 141.085 47.0792C140.262 47.0792 139.74 47.352 139.52 47.8976ZM137.122 49.1037C137.122 48.1082 137.419 47.2658 138.012 46.5766C138.759 45.696 139.788 45.2557 141.099 45.2557C141.559 45.2557 141.994 45.3179 142.406 45.4423C142.827 45.5668 143.2 45.7582 143.526 46.0167C143.861 46.2655 144.143 46.567 144.373 46.9212C144.612 47.2658 144.785 47.6774 144.89 48.156C145.005 48.6251 145.038 49.1372 144.99 49.6923L139.491 49.678C139.51 49.879 139.568 50.0609 139.664 50.2236C139.769 50.3863 139.898 50.5203 140.051 50.6256C140.204 50.7213 140.372 50.7979 140.554 50.8554C140.745 50.9128 140.951 50.9463 141.171 50.9559C141.353 50.9654 141.53 50.9415 141.702 50.8841C141.875 50.8266 142.018 50.7548 142.133 50.6687C142.248 50.5825 142.349 50.4964 142.435 50.4103C142.53 50.3145 142.597 50.238 142.636 50.1805C142.674 50.1231 142.693 50.0896 142.693 50.08L144.675 51.0994C144.349 51.7025 143.866 52.1859 143.224 52.5496C142.583 52.9038 141.87 53.0713 141.085 53.0522C140.08 53.033 139.223 52.7458 138.515 52.1907C137.586 51.4536 137.122 50.4246 137.122 49.1037ZM155.034 49.1754C155.014 49.8742 154.837 50.5299 154.502 51.1425C154.177 51.7551 153.722 52.2481 153.138 52.6214C152.564 52.9947 151.932 53.1814 151.243 53.1814C150.879 53.1814 150.511 53.1479 150.137 53.0809C149.774 53.0234 149.434 52.9277 149.118 52.7937C148.812 52.6501 148.611 52.4874 148.515 52.3055V56.0387H146.175L146.189 49.4483C146.218 49.0845 146.275 48.7351 146.361 48.4001C146.907 46.2655 148.462 45.1887 151.028 45.1695C151.717 45.1599 152.377 45.3562 153.009 45.7582C153.641 46.1507 154.139 46.658 154.502 47.2802C154.866 47.9024 155.043 48.5341 155.034 49.1754ZM150.769 50.9989C151.363 50.9989 151.851 50.8219 152.234 50.4677C152.617 50.1039 152.808 49.6493 152.808 49.1037C152.808 48.5485 152.617 48.0938 152.234 47.7396C151.851 47.3759 151.367 47.194 150.784 47.194C150.391 47.194 150.042 47.2802 149.735 47.4525C149.429 47.6152 149.19 47.8401 149.017 48.1273C148.845 48.4145 148.759 48.7399 148.759 49.1037C148.759 49.6493 148.946 50.1039 149.319 50.4677C149.702 50.8219 150.185 50.9989 150.769 50.9989ZM162.433 50.64C162.395 51.4153 162.041 52.0375 161.371 52.5065C160.71 52.966 159.873 53.1718 158.858 53.1239C158.312 53.0857 157.824 52.9947 157.394 52.8511C156.963 52.698 156.628 52.5257 156.388 52.3342C156.159 52.1428 155.972 51.9561 155.829 51.7743C155.685 51.5828 155.584 51.4249 155.527 51.3005C155.479 51.1664 155.46 51.0994 155.47 51.0994L157.681 50.1662L157.695 50.238C157.695 50.2954 157.719 50.3624 157.767 50.439C157.815 50.5155 157.877 50.5969 157.954 50.6831C158.03 50.7596 158.15 50.8314 158.312 50.8984C158.475 50.9559 158.667 50.9941 158.887 51.0133C158.963 51.0229 159.059 51.0277 159.174 51.0277C159.298 51.0181 159.418 51.0085 159.533 50.9989C159.648 50.9798 159.748 50.9367 159.834 50.8697C159.921 50.8027 159.964 50.7166 159.964 50.6113C159.964 50.5347 159.945 50.4677 159.906 50.4103C159.878 50.3528 159.839 50.305 159.791 50.2667C159.753 50.2284 159.676 50.1949 159.562 50.1662C159.456 50.1374 159.361 50.1183 159.274 50.1087C159.198 50.0992 159.069 50.08 158.887 50.0513C158.772 50.0322 158.686 50.0226 158.628 50.0226C158.169 49.9364 157.781 49.8455 157.465 49.7498C157.159 49.6445 156.862 49.5009 156.575 49.319C156.288 49.1276 156.077 48.8787 155.943 48.5724C155.819 48.2661 155.766 47.8976 155.785 47.4668C155.805 46.9882 155.958 46.567 156.245 46.2033C156.542 45.8396 156.934 45.562 157.422 45.3705C157.91 45.1791 158.451 45.1025 159.045 45.1408C159.227 45.1504 159.394 45.1647 159.547 45.1839C159.71 45.203 159.863 45.227 160.007 45.2557C160.15 45.2748 160.284 45.3035 160.409 45.3418C160.533 45.3801 160.653 45.4232 160.768 45.471C160.883 45.5093 160.988 45.5524 161.084 45.6003C161.189 45.6481 161.285 45.7056 161.371 45.7726C161.466 45.83 161.553 45.8922 161.629 45.9592C161.706 46.0262 161.778 46.098 161.845 46.1746C161.921 46.2512 161.988 46.3277 162.046 46.4043C162.113 46.4809 162.18 46.567 162.247 46.6628L160.093 47.7971C160.102 47.7971 160.098 47.7779 160.079 47.7396C160.069 47.7013 160.04 47.6583 159.992 47.6104C159.954 47.5625 159.897 47.5147 159.82 47.4668C159.753 47.4094 159.653 47.3615 159.519 47.3232C159.394 47.2754 159.246 47.2467 159.073 47.2371C158.461 47.2084 158.15 47.3232 158.14 47.5817C158.14 47.6774 158.159 47.754 158.198 47.8114C158.245 47.8689 158.322 47.9167 158.427 47.955C158.533 47.9933 158.628 48.0268 158.714 48.0555C158.81 48.0747 158.959 48.1034 159.16 48.1417C159.207 48.1512 159.241 48.156 159.26 48.156C159.681 48.2326 160.045 48.314 160.351 48.4001C161.787 48.8213 162.481 49.5679 162.433 50.64Z" fill="#FBFBFB"/>
<path d="M25.8117 34.5957C25.1752 26.6686 21.8488 19.6874 19.3492 15.7357C18.3695 14.1869 17.4333 14.2478 17.8671 16.0284C18.3314 17.9344 19.1442 20.5298 19.814 22.5339C20.0461 23.2284 20.3798 23.8837 20.6493 24.5646C21.7974 27.4644 21.1932 31.6125 11.4772 30.6537C5.58561 30.0723 2.66009 29.9887 1.37149 30.1054C0.452912 30.1886 1.27789 30.7279 2.17859 30.9265C17.3317 34.2681 26.7688 46.5162 25.8117 34.5957Z" fill="#FBFBFB"/>
<ellipse cx="15.0626" cy="25.3887" rx="3.40444" ry="4.43237" transform="rotate(-42.524 15.0626 25.3887)" fill="#FBFBFB"/>
<ellipse cx="31.9679" cy="10.3598" rx="4.35198" ry="6.21583" transform="rotate(2.5601 31.9679 10.3598)" fill="#FBFBFB"/>
<ellipse cx="51.0976" cy="25.9369" rx="3.47817" ry="5.11941" transform="rotate(42.539 51.0976 25.9369)" fill="#FBFBFB"/>
<path d="M47.7614 12.198C47.0664 12.1594 45.8896 14.2509 44.7464 16.7583C42.8813 20.8488 41.1497 25.0736 39.9132 29.3959C39.8145 29.741 39.7169 30.0879 39.6212 30.4333C38.7271 33.6597 37.7086 39.1403 40.6947 40.6543C43.9094 42.2843 46.273 39.2503 49.5269 37.7001C51.8199 36.6077 54.7654 35.537 58.1539 34.9541C66.4858 33.5206 67.4713 32.8935 67.5609 31.8184C67.6326 30.9583 59.4679 31.8781 55.3766 32.4455C53.316 32.6546 48.4781 32.6247 45.6112 30.8329C42.7443 29.0411 45.5515 20.9481 47.3134 17.1255C48.0003 15.5129 49.0515 12.2697 47.7614 12.198Z" fill="#FBFBFB"/>
<path d="M22.228 8.34543C20.9743 4.18288 19.7059 1.91238 18.8219 0.821844C18.3128 0.19388 17.3133 -0.00605509 17.2262 0.797609C16.9055 3.75789 20.773 14.2398 23.1239 19.9922C24.9755 24.5613 29.6103 33.5025 33.3373 32.7141C37.996 31.7286 38.6231 29.0409 40.0566 23.3967C41.2033 18.8813 46.2085 11.7797 48.5677 8.79338C50.1206 6.6432 52.9397 2.23534 51.7929 1.80531C50.3595 1.26776 50.0011 2.79081 41.4004 12.2874C34.5199 19.8847 29.5745 19.5741 27.9618 18.4692C26.7972 17.5733 24.0198 14.2942 22.228 8.34543Z" fill="#FBFBFB"/>
</svg>
