<svg width="250" height="87" viewBox="0 0 250 87" fill="none" xmlns="http://www.w3.org/2000/svg">
<path d="M42.1234 82.2268V69.0156H37.1665V65.7847H50.953V69.0156H45.9961V82.2268H42.1234ZM52.7134 65.8068H56.1877V71.8039C56.8516 70.8745 58.0687 70.4097 59.839 70.4097C61.1963 70.4097 62.2954 70.8523 63.1363 71.7375C63.992 72.6227 64.4198 73.7365 64.4198 75.079V82.2711L60.8791 82.2268V75.7208C60.8791 75.0274 60.6799 74.4668 60.2816 74.0389C59.8833 73.6111 59.3448 73.3898 58.6662 73.3751C58.3268 73.3751 58.0097 73.4415 57.7146 73.5742C57.4343 73.6923 57.1909 73.8619 56.9843 74.0832C56.7778 74.2897 56.6155 74.5479 56.4975 74.8577C56.3795 75.1675 56.3204 75.4995 56.3204 75.8536L56.2983 82.2711L52.7134 82.2268V65.8068ZM69.5509 74.3266H74.4193C74.3898 73.9283 74.1464 73.6185 73.689 73.3972C73.2465 73.1759 72.6711 73.0653 71.963 73.0653C70.6942 73.0653 69.8902 73.4857 69.5509 74.3266ZM65.8553 76.1855C65.8553 74.6512 66.3126 73.3529 67.2273 72.2907C68.378 70.9335 69.9639 70.2548 71.9851 70.2548C72.6932 70.2548 73.3645 70.3507 73.9989 70.5425C74.648 70.7343 75.2233 71.0294 75.7249 71.4277C76.2413 71.8113 76.6765 72.276 77.0306 72.8218C77.3994 73.3529 77.665 73.9873 77.8272 74.725C78.0043 75.4479 78.0559 76.2371 77.9821 77.0928L69.5066 77.0707C69.5361 77.3805 69.6246 77.6608 69.7722 77.9116C69.9344 78.1624 70.1336 78.3689 70.3696 78.5312C70.6057 78.6787 70.8639 78.7968 71.1442 78.8853C71.4392 78.9738 71.7564 79.0254 72.0957 79.0402C72.376 79.0549 72.649 79.0181 72.9145 78.9295C73.1801 78.841 73.4014 78.7304 73.5784 78.5976C73.7554 78.4648 73.9103 78.332 74.0431 78.1993C74.1906 78.0517 74.2939 77.9337 74.3529 77.8452C74.4119 77.7567 74.4414 77.705 74.4414 77.6903L77.4953 79.2615C76.9937 80.1909 76.2487 80.9359 75.2602 81.4965C74.2718 82.0424 73.1727 82.3006 71.963 82.2711C70.4139 82.2416 69.0935 81.799 68.0018 80.9433C66.5708 79.8073 65.8553 78.2214 65.8553 76.1855ZM93.4431 78.7525C93.8562 78.7525 94.2398 78.723 94.5938 78.664C94.9627 78.605 95.2799 78.5312 95.5454 78.4427C95.811 78.3394 96.0544 78.2288 96.2757 78.1107C96.497 77.978 96.6814 77.8452 96.8289 77.7124C96.9764 77.5649 97.1092 77.4247 97.2272 77.292C97.3453 77.1444 97.4338 77.0043 97.4928 76.8715C97.5666 76.7387 97.6256 76.6281 97.6698 76.5396C97.7141 76.4363 97.7436 76.3552 97.7583 76.2961C97.7731 76.2224 97.7805 76.1855 97.7805 76.1855L101.388 77.6903C101.255 78.1624 101.07 78.605 100.834 79.0181C100.598 79.4311 100.266 79.859 99.8385 80.3016C99.4254 80.7294 98.9386 81.0982 98.378 81.408C97.8174 81.7031 97.1166 81.9539 96.2757 82.1604C95.4348 82.3522 94.5053 82.4481 93.4874 82.4481C90.9794 82.4481 88.9066 81.6662 87.269 80.1024C85.6462 78.5238 84.8348 76.5174 84.8348 74.0832C84.8348 71.708 85.6241 69.7311 87.2026 68.1525C88.8255 66.5297 90.9204 65.7183 93.4874 65.7183C95.3315 65.7183 96.9322 66.0945 98.2894 66.8469C99.6467 67.5993 100.628 68.6099 101.233 69.8786L97.9354 71.7818C97.2715 70.1442 95.7962 69.3254 93.5095 69.3254C92.7866 69.3254 92.1301 69.4287 91.54 69.6352C90.9499 69.8418 90.4483 70.1442 90.0352 70.5425C89.6221 70.9408 89.2976 71.4351 89.0615 72.0252C88.8402 72.6153 88.7296 73.2866 88.7296 74.0389C88.7296 75.4995 89.1648 76.6502 90.0352 77.4911C90.9204 78.332 92.0563 78.7525 93.4431 78.7525ZM109.691 79.1066C110.237 79.1066 110.724 78.9812 111.151 78.7304C111.594 78.4796 111.933 78.1403 112.169 77.7124C112.405 77.2698 112.523 76.7756 112.523 76.2298C112.523 75.4036 112.258 74.7176 111.727 74.1717C111.196 73.6259 110.517 73.3529 109.691 73.3529C108.85 73.3529 108.157 73.6259 107.611 74.1717C107.065 74.7176 106.792 75.4036 106.792 76.2298C106.792 76.6428 106.858 77.0264 106.991 77.3805C107.139 77.7345 107.338 78.037 107.589 78.2878C107.854 78.5386 108.164 78.7377 108.518 78.8853C108.872 79.0328 109.263 79.1066 109.691 79.1066ZM109.492 70.1884C110.731 70.1884 111.823 70.4466 112.767 70.963C113.726 71.4646 114.471 72.1801 115.002 73.1095C115.533 74.0389 115.799 75.1012 115.799 76.2961C115.799 77.4911 115.533 78.5533 115.002 79.4828C114.471 80.4122 113.726 81.1351 112.767 81.6514C111.808 82.153 110.716 82.4038 109.492 82.4038C107.869 82.4038 106.49 81.9539 105.354 81.054C103.923 79.9032 103.207 78.3173 103.207 76.2961C103.207 74.7176 103.664 73.3824 104.579 72.2907C105.759 70.8892 107.397 70.1884 109.492 70.1884ZM117.58 82.2268L117.602 76.1412C117.602 75.3888 117.676 74.6955 117.823 74.0611C117.971 73.4267 118.17 72.8956 118.421 72.4678C118.671 72.0399 118.966 71.6637 119.306 71.3392C119.66 71.0146 120.007 70.7638 120.346 70.5868C120.685 70.4097 121.047 70.2622 121.43 70.1442C121.814 70.0262 122.138 69.9524 122.404 69.9229C122.684 69.8934 122.95 69.8786 123.201 69.8786C124.868 69.8786 126.217 70.3433 127.25 71.2728C128.283 72.2022 128.799 73.3898 128.799 74.8356V82.2268H125.325V75.4774C125.325 74.7692 125.141 74.2234 124.772 73.8398C124.418 73.4562 123.916 73.2644 123.267 73.2644C122.942 73.2644 122.64 73.3161 122.36 73.4193C122.094 73.5078 121.858 73.648 121.651 73.8398C121.445 74.0316 121.283 74.275 121.165 74.5701C121.061 74.8651 121.01 75.1971 121.01 75.5659V82.2268H117.58ZM132.306 78.3763V73.2644L130.027 73.2423L130.071 70.2106H132.395V67.8206L135.758 65.5855L135.714 70.0999L138.812 70.1221V73.2866H135.736V77.0928C135.722 77.6829 135.773 78.1034 135.891 78.3542C136.009 78.605 136.23 78.7599 136.555 78.8189C136.85 78.8779 137.16 78.8484 137.484 78.7304C137.824 78.5976 138.075 78.4206 138.237 78.1993C138.311 78.3615 138.407 78.5533 138.525 78.7746C138.657 78.9959 138.856 79.3205 139.122 79.7483C139.388 80.1762 139.624 80.5671 139.83 80.9212C139.668 81.3195 139.24 81.6514 138.547 81.917C137.868 82.1678 137.138 82.2932 136.356 82.2932C135.426 82.2932 134.615 82.0571 133.922 81.5851C132.859 80.8474 132.321 79.7778 132.306 78.3763ZM143.765 74.3266H148.634C148.604 73.9283 148.361 73.6185 147.904 73.3972C147.461 73.1759 146.886 73.0653 146.178 73.0653C144.909 73.0653 144.105 73.4857 143.765 74.3266ZM140.07 76.1855C140.07 74.6512 140.527 73.3529 141.442 72.2907C142.593 70.9335 144.178 70.2548 146.2 70.2548C146.908 70.2548 147.579 70.3507 148.213 70.5425C148.863 70.7343 149.438 71.0294 149.94 71.4277C150.456 71.8113 150.891 72.276 151.245 72.8218C151.614 73.3529 151.88 73.9873 152.042 74.725C152.219 75.4479 152.27 76.2371 152.197 77.0928L143.721 77.0707C143.751 77.3805 143.839 77.6608 143.987 77.9116C144.149 78.1624 144.348 78.3689 144.584 78.5312C144.82 78.6787 145.078 78.7968 145.359 78.8853C145.654 78.9738 145.971 79.0254 146.31 79.0402C146.591 79.0549 146.864 79.0181 147.129 78.9295C147.395 78.841 147.616 78.7304 147.793 78.5976C147.97 78.4648 148.125 78.332 148.258 78.1993C148.405 78.0517 148.508 77.9337 148.567 77.8452C148.626 77.7567 148.656 77.705 148.656 77.6903L151.71 79.2615C151.208 80.1909 150.463 80.9359 149.475 81.4965C148.486 82.0424 147.387 82.3006 146.178 82.2711C144.628 82.2416 143.308 81.799 142.216 80.9433C140.785 79.8073 140.07 78.2214 140.07 76.1855ZM153.823 82.2268L153.845 76.1412C153.845 75.3888 153.918 74.6955 154.066 74.0611C154.213 73.4267 154.413 72.8956 154.663 72.4678C154.914 72.0399 155.209 71.6637 155.549 71.3392C155.903 71.0146 156.249 70.7638 156.589 70.5868C156.928 70.4097 157.289 70.2622 157.673 70.1442C158.057 70.0262 158.381 69.9524 158.647 69.9229C158.927 69.8934 159.193 69.8786 159.443 69.8786C161.11 69.8786 162.46 70.3433 163.493 71.2728C164.526 72.2022 165.042 73.3898 165.042 74.8356V82.2268H161.568V75.4774C161.568 74.7692 161.383 74.2234 161.015 73.8398C160.66 73.4562 160.159 73.2644 159.51 73.2644C159.185 73.2644 158.883 73.3161 158.602 73.4193C158.337 73.5078 158.101 73.648 157.894 73.8398C157.688 74.0316 157.525 74.275 157.407 74.5701C157.304 74.8651 157.253 75.1971 157.253 75.5659V82.2268H153.823ZM168.549 78.3763V73.2644L166.27 73.2423L166.314 70.2106H168.638V67.8206L172.001 65.5855L171.957 70.0999L175.055 70.1221V73.2866H171.979V77.0928C171.964 77.6829 172.016 78.1034 172.134 78.3542C172.252 78.605 172.473 78.7599 172.798 78.8189C173.093 78.8779 173.403 78.8484 173.727 78.7304C174.067 78.5976 174.317 78.4206 174.48 78.1993C174.554 78.3615 174.649 78.5533 174.767 78.7746C174.9 78.9959 175.099 79.3205 175.365 79.7483C175.63 80.1762 175.867 80.5671 176.073 80.9212C175.911 81.3195 175.483 81.6514 174.79 81.917C174.111 82.1678 173.381 82.2932 172.599 82.2932C171.669 82.2932 170.858 82.0571 170.165 81.5851C169.102 80.8474 168.564 79.7778 168.549 78.3763ZM188.534 68.6615H185.857V74.216H188.534C189.065 74.216 189.567 74.1496 190.039 74.0168C190.511 73.8693 190.917 73.6775 191.256 73.4415C191.61 73.1907 191.883 72.8956 192.075 72.5563C192.282 72.2022 192.385 71.826 192.385 71.4277C192.385 71.1179 192.318 70.8154 192.186 70.5204C192.068 70.2253 191.891 69.9672 191.655 69.7459C191.418 69.5246 191.138 69.3328 190.814 69.1705C190.504 68.9935 190.15 68.8681 189.751 68.7943C189.368 68.7058 188.962 68.6615 188.534 68.6615ZM189.265 77.469H185.945V82.1825H182.227V65.7404H189.309C190.283 65.7404 191.182 65.888 192.009 66.183C192.85 66.4781 193.565 66.8838 194.155 67.4001C194.745 67.9017 195.203 68.5214 195.527 69.259C195.866 69.9819 196.036 70.7638 196.036 71.6047C196.036 72.7407 195.748 73.7586 195.173 74.6586C194.612 75.5437 193.816 76.2371 192.783 76.7387C191.75 77.2256 190.578 77.469 189.265 77.469ZM200.532 74.3266H205.401C205.371 73.9283 205.128 73.6185 204.671 73.3972C204.228 73.1759 203.653 73.0653 202.944 73.0653C201.676 73.0653 200.872 73.4857 200.532 74.3266ZM196.837 76.1855C196.837 74.6512 197.294 73.3529 198.209 72.2907C199.36 70.9335 200.945 70.2548 202.967 70.2548C203.675 70.2548 204.346 70.3507 204.98 70.5425C205.629 70.7343 206.205 71.0294 206.706 71.4277C207.223 71.8113 207.658 72.276 208.012 72.8218C208.381 73.3529 208.646 73.9873 208.809 74.725C208.986 75.4479 209.037 76.2371 208.964 77.0928L200.488 77.0707C200.518 77.3805 200.606 77.6608 200.754 77.9116C200.916 78.1624 201.115 78.3689 201.351 78.5312C201.587 78.6787 201.845 78.7968 202.126 78.8853C202.421 78.9738 202.738 79.0254 203.077 79.0402C203.358 79.0549 203.63 79.0181 203.896 78.9295C204.162 78.841 204.383 78.7304 204.56 78.5976C204.737 78.4648 204.892 78.332 205.025 78.1993C205.172 78.0517 205.275 77.9337 205.334 77.8452C205.393 77.7567 205.423 77.705 205.423 77.6903L208.477 79.2615C207.975 80.1909 207.23 80.9359 206.242 81.4965C205.253 82.0424 204.154 82.3006 202.944 82.2711C201.395 82.2416 200.075 81.799 198.983 80.9433C197.552 79.8073 196.837 78.2214 196.837 76.1855ZM214.263 74.3266H219.131C219.102 73.9283 218.858 73.6185 218.401 73.3972C217.959 73.1759 217.383 73.0653 216.675 73.0653C215.406 73.0653 214.602 73.4857 214.263 74.3266ZM210.567 76.1855C210.567 74.6512 211.025 73.3529 211.939 72.2907C213.09 70.9335 214.676 70.2548 216.697 70.2548C217.405 70.2548 218.077 70.3507 218.711 70.5425C219.36 70.7343 219.935 71.0294 220.437 71.4277C220.953 71.8113 221.389 72.276 221.743 72.8218C222.111 73.3529 222.377 73.9873 222.539 74.725C222.716 75.4479 222.768 76.2371 222.694 77.0928L214.219 77.0707C214.248 77.3805 214.337 77.6608 214.484 77.9116C214.647 78.1624 214.846 78.3689 215.082 78.5312C215.318 78.6787 215.576 78.7968 215.856 78.8853C216.151 78.9738 216.468 79.0254 216.808 79.0402C217.088 79.0549 217.361 79.0181 217.627 78.9295C217.892 78.841 218.113 78.7304 218.29 78.5976C218.468 78.4648 218.622 78.332 218.755 78.1993C218.903 78.0517 219.006 77.9337 219.065 77.8452C219.124 77.7567 219.154 77.705 219.154 77.6903L222.207 79.2615C221.706 80.1909 220.961 80.9359 219.972 81.4965C218.984 82.0424 217.885 82.3006 216.675 82.2711C215.126 82.2416 213.806 81.799 212.714 80.9433C211.283 79.8073 210.567 78.2214 210.567 76.1855ZM238.173 76.2961C238.143 77.3731 237.871 78.3837 237.354 79.3279C236.853 80.272 236.152 81.0318 235.252 81.6072C234.367 82.1825 233.393 82.4702 232.331 82.4702C231.77 82.4702 231.202 82.4186 230.627 82.3153C230.066 82.2268 229.543 82.0793 229.056 81.8727C228.584 81.6514 228.274 81.4006 228.126 81.1203V86.874H224.519L224.541 76.7166C224.586 76.156 224.674 75.6175 224.807 75.1012C225.648 71.8113 228.045 70.1516 231.999 70.1221C233.061 70.1073 234.079 70.4097 235.053 71.0294C236.026 71.6342 236.794 72.4161 237.354 73.3751C237.915 74.334 238.188 75.3077 238.173 76.2961ZM231.601 79.1066C232.515 79.1066 233.268 78.8336 233.858 78.2878C234.448 77.7272 234.743 77.0264 234.743 76.1855C234.743 75.3298 234.448 74.6291 233.858 74.0832C233.268 73.5226 232.523 73.2423 231.623 73.2423C231.018 73.2423 230.479 73.3751 230.007 73.6406C229.535 73.8914 229.166 74.2381 228.901 74.6807C228.635 75.1233 228.502 75.6249 228.502 76.1855C228.502 77.0264 228.79 77.7272 229.366 78.2878C229.956 78.8336 230.701 79.1066 231.601 79.1066ZM249.578 78.5533C249.519 79.7483 248.973 80.7073 247.94 81.4302C246.922 82.1383 245.631 82.4555 244.068 82.3817C243.227 82.3227 242.474 82.1825 241.81 81.9613C241.146 81.7252 240.63 81.4597 240.261 81.1646C239.907 80.8695 239.62 80.5819 239.398 80.3016C239.177 80.0065 239.022 79.7631 238.934 79.5713C238.86 79.3647 238.83 79.2615 238.845 79.2615L242.253 77.8231L242.275 77.9337C242.275 78.0222 242.312 78.1255 242.386 78.2435C242.459 78.3615 242.555 78.4869 242.673 78.6197C242.791 78.7377 242.976 78.8484 243.227 78.9517C243.477 79.0402 243.772 79.0992 244.112 79.1287C244.23 79.1435 244.377 79.1508 244.554 79.1508C244.746 79.1361 244.931 79.1213 245.108 79.1066C245.285 79.0771 245.44 79.0107 245.572 78.9074C245.705 78.8041 245.771 78.6714 245.771 78.5091C245.771 78.3911 245.742 78.2878 245.683 78.1993C245.639 78.1107 245.58 78.037 245.506 77.978C245.447 77.919 245.329 77.8673 245.152 77.8231C244.99 77.7788 244.842 77.7493 244.709 77.7345C244.591 77.7198 244.392 77.6903 244.112 77.646C243.935 77.6165 243.802 77.6018 243.713 77.6018C243.005 77.469 242.408 77.3288 241.921 77.1813C241.449 77.019 240.992 76.7977 240.549 76.5174C240.106 76.2224 239.782 75.8388 239.575 75.3667C239.383 74.8946 239.302 74.3266 239.332 73.6628C239.361 72.9251 239.597 72.276 240.04 71.7154C240.497 71.1548 241.102 70.7269 241.855 70.4319C242.607 70.1368 243.441 70.0188 244.355 70.0778C244.636 70.0925 244.894 70.1147 245.13 70.1442C245.381 70.1737 245.617 70.2106 245.838 70.2548C246.059 70.2843 246.266 70.3286 246.457 70.3876C246.649 70.4466 246.834 70.513 247.011 70.5868C247.188 70.6458 247.35 70.7122 247.498 70.7859C247.66 70.8597 247.807 70.9482 247.94 71.0515C248.088 71.14 248.22 71.2359 248.338 71.3392C248.457 71.4424 248.567 71.5531 248.67 71.6711C248.788 71.7891 248.892 71.9072 248.98 72.0252C249.084 72.1432 249.187 72.276 249.29 72.4235L245.971 74.1717C245.985 74.1717 245.978 74.1422 245.949 74.0832C245.934 74.0242 245.89 73.9578 245.816 73.884C245.757 73.8103 245.668 73.7365 245.55 73.6628C245.447 73.5742 245.292 73.5005 245.085 73.4415C244.894 73.3677 244.665 73.3234 244.399 73.3087C243.455 73.2644 242.976 73.4415 242.961 73.8398C242.961 73.9873 242.991 74.1053 243.05 74.1939C243.123 74.2824 243.241 74.3561 243.404 74.4151C243.566 74.4742 243.713 74.5258 243.846 74.5701C243.994 74.5996 244.222 74.6438 244.532 74.7028C244.606 74.7176 244.658 74.725 244.687 74.725C245.336 74.843 245.897 74.9684 246.369 75.1012C248.582 75.7503 249.651 76.901 249.578 78.5533Z" fill="#10082D"/>
<path d="M39.0114 53.32C38.0304 41.1024 32.9037 30.3428 29.0512 24.2523C27.5413 21.8653 26.0984 21.9592 26.7669 24.7035C27.4825 27.6411 28.7353 31.6412 29.7676 34.73C30.1253 35.8004 30.6395 36.8103 31.055 37.8597C32.8245 42.329 31.8932 48.7223 16.9185 47.2445C7.83822 46.3484 3.32931 46.2196 1.34327 46.3995C-0.0724799 46.5277 1.19901 47.3589 2.5872 47.665C25.9418 52.8151 40.4866 71.6924 39.0114 53.32Z" fill="#10082D"/>
<ellipse cx="22.4445" cy="39.13" rx="5.24706" ry="6.83134" transform="rotate(-42.524 22.4445 39.13)" fill="#10082D"/>
<ellipse cx="48.4995" cy="15.967" rx="6.70743" ry="9.58006" transform="rotate(2.5601 48.4995 15.967)" fill="#10082D"/>
<ellipse cx="77.983" cy="39.9748" rx="5.36069" ry="7.89023" transform="rotate(42.539 77.983 39.9748)" fill="#10082D"/>
<path d="M72.8412 18.8001C71.7701 18.7406 69.9563 21.9641 68.1943 25.8285C65.3198 32.1329 62.6509 38.6445 60.7453 45.3061C60.5931 45.8381 60.4427 46.3727 60.2952 46.905C58.9172 51.8776 57.3475 60.3245 61.9497 62.658C66.9044 65.1702 70.5472 60.4941 75.5623 58.1049C79.0963 56.4213 83.636 54.771 88.8585 53.8726C101.7 51.6633 103.219 50.6967 103.357 49.0397C103.467 47.7142 90.8837 49.1318 84.578 50.0063C81.4021 50.3285 73.9458 50.2825 69.5272 47.5209C65.1087 44.7592 69.4352 32.286 72.1508 26.3945C73.2094 23.9091 74.8295 18.9106 72.8412 18.8001Z" fill="#10082D"/>
<path d="M33.4881 12.8623C31.5558 6.44681 29.6009 2.94744 28.2384 1.26666C27.4539 0.298815 25.9133 -0.00933326 25.7791 1.2293C25.2849 5.79179 31.2455 21.947 34.8689 30.8127C37.7226 37.8548 44.866 51.6353 50.6101 50.4202C57.7903 48.9013 58.7569 44.7589 60.9661 36.0598C62.7336 29.1005 70.4477 18.1554 74.0838 13.5527C76.4772 10.2388 80.8221 3.44519 79.0547 2.78241C76.8454 1.95393 76.2931 4.30129 63.0374 18.9378C52.4328 30.647 44.8107 30.1684 42.3253 28.4654C40.5302 27.0846 36.2498 22.0308 33.4881 12.8623Z" fill="#10082D"/>
</svg>
