<svg width="25" height="24" viewBox="0 0 25 24" fill="none" xmlns="http://www.w3.org/2000/svg">
<g id="Icons">
<g id="Icon">
<path fill-rule="evenodd" clip-rule="evenodd" d="M4.5 7.5C4.5 5.567 6.067 4 8 4C9.933 4 11.5 5.567 11.5 7.5C11.5 9.433 9.933 11 8 11C6.067 11 4.5 9.433 4.5 7.5ZM10 7.5C10 6.39543 9.10457 5.5 8 5.5C6.89543 5.5 6 6.39543 6 7.5C6 8.60457 6.89543 9.5 8 9.5C9.10457 9.5 10 8.60457 10 7.5Z" fill="#FBFBFB"/>
<path fill-rule="evenodd" clip-rule="evenodd" d="M14.5 7.5C14.5 5.567 16.067 4 18 4C19.933 4 21.5 5.567 21.5 7.5C21.5 9.433 19.933 11 18 11C16.067 11 14.5 9.433 14.5 7.5ZM20 7.5C20 6.39543 19.1046 5.5 18 5.5C16.8954 5.5 16 6.39543 16 7.5C16 8.60457 16.8954 9.5 18 9.5C19.1046 9.5 20 8.60457 20 7.5Z" fill="#FBFBFB"/>
<path fill-rule="evenodd" clip-rule="evenodd" d="M4.5 17.5C4.5 15.567 6.067 14 8 14C9.933 14 11.5 15.567 11.5 17.5C11.5 19.433 9.933 21 8 21C6.067 21 4.5 19.433 4.5 17.5ZM10 17.5C10 16.3954 9.10457 15.5 8 15.5C6.89543 15.5 6 16.3954 6 17.5C6 18.6046 6.89543 19.5 8 19.5C9.10457 19.5 10 18.6046 10 17.5Z" fill="#FBFBFB"/>
<path fill-rule="evenodd" clip-rule="evenodd" d="M14.5 17.5C14.5 15.567 16.067 14 18 14C19.933 14 21.5 15.567 21.5 17.5C21.5 19.433 19.933 21 18 21C16.067 21 14.5 19.433 14.5 17.5ZM20 17.5C20 16.3954 19.1046 15.5 18 15.5C16.8954 15.5 16 16.3954 16 17.5C16 18.6046 16.8954 19.5 18 19.5C19.1046 19.5 20 18.6046 20 17.5Z" fill="#FBFBFB"/>
</g>
</g>
</svg>
