<svg width="56" height="56" viewBox="0 0 56 56" fill="none" xmlns="http://www.w3.org/2000/svg">
<rect y="0.00012207" width="56" height="56" rx="16" fill="#FBCCFF"/>
<path fill-rule="evenodd" clip-rule="evenodd" d="M37.1 22.7601H36.89V21.7601C36.89 20.2949 35.7052 19.1056 34.24 19.1001H20.9C20.1875 19.1027 19.5058 19.3909 19.0077 19.9003C18.5096 20.4098 18.2366 21.0977 18.25 21.8101V28.4801C18.25 29.1829 18.5292 29.857 19.0262 30.3539C19.5232 30.8509 20.1972 31.1301 20.9 31.1301H31.38V32.5201H21.86C21.4458 32.5201 21.11 32.8559 21.11 33.2701C21.11 33.6843 21.4458 34.0201 21.86 34.0201H31.38V34.1901C31.3855 35.2427 32.2374 36.0946 33.29 36.1001H37.1C38.151 36.0946 39 35.2411 39 34.1901V24.6701C39.0027 24.1645 38.8037 23.6786 38.4471 23.3201C38.0905 22.9616 37.6057 22.7601 37.1 22.7601ZM20.9 29.6301C20.2671 29.6247 19.7554 29.113 19.75 28.4801V21.8101C19.75 21.1733 20.2633 20.6556 20.9 20.6501H34.24C34.5468 20.6501 34.8408 20.7726 35.0567 20.9905C35.2727 21.2083 35.3927 21.5034 35.39 21.8101V22.8101H33.29C32.2374 22.8156 31.3855 23.6675 31.38 24.7201V29.7201L20.9 29.6301ZM37.1 34.6001C37.3225 34.5947 37.5001 34.4127 37.5 34.1901V24.6701C37.5027 24.5623 37.4618 24.458 37.3865 24.3808C37.3111 24.3036 37.2079 24.2601 37.1 24.2601H33.29C33.0658 24.2654 32.8853 24.4459 32.88 24.6701V34.1901C32.8853 34.4143 33.0658 34.5948 33.29 34.6001H37.1Z" fill="#B800C8"/>
<path d="M36.14 24.8701H34.24C33.8258 24.8701 33.49 25.2059 33.49 25.6201C33.49 26.0343 33.8258 26.3701 34.24 26.3701H36.14C36.5542 26.3701 36.89 26.0343 36.89 25.6201C36.89 25.2059 36.5542 24.8701 36.14 24.8701Z" fill="#B800C8"/>
</svg>
