<svg width="56" height="56" viewBox="0 0 56 56" fill="none" xmlns="http://www.w3.org/2000/svg">
<rect y="0.00012207" width="56" height="56" rx="16" fill="#B0FEE2"/>
<path fill-rule="evenodd" clip-rule="evenodd" d="M30.5602 30.3601H30.6202C32.585 29.4929 34.1519 27.9188 35.0102 25.9501V30.3101C35.0182 33.1047 33.3633 35.6363 30.8002 36.7501H30.7302C29.8828 37.109 28.9705 37.2894 28.0502 37.2801C27.1607 37.2826 26.2799 37.1057 25.4602 36.7601L25.2002 36.6501C22.6428 35.5802 20.984 33.0723 21.0002 30.3001V30.1201C21.0194 28.7005 21.598 27.3457 22.6102 26.3501L22.7902 26.1801C24.3815 24.6217 25.6938 22.802 26.6702 20.8001L28.0402 18.0001C28.0402 18.0001 29.4602 20.0001 30.7802 22.0001C32.3901 24.3887 31.8546 27.6187 29.5602 29.3601H29.4402C29.202 29.6599 29.2279 30.091 29.5002 30.3601C29.6141 30.4563 29.7617 30.5031 29.9102 30.4901C30.1323 30.4808 30.3516 30.437 30.5602 30.3601ZM30.1202 35.3601H30.1902V35.3501C32.1897 34.4738 33.4865 32.5032 33.5002 30.3201C32.8258 30.9137 32.0547 31.3872 31.2202 31.7201L31.0902 31.7701C30.7138 31.9167 30.3142 31.9946 29.9102 32.0001C29.3629 32.0194 28.8315 31.8134 28.4402 31.4301C27.6233 30.6227 27.5457 29.3295 28.2602 28.4301C28.3475 28.3211 28.4483 28.2236 28.5602 28.1401H28.6302C30.3165 26.8823 30.7132 24.5197 29.5302 22.7801C29.1002 22.1401 28.6702 21.5001 28.2702 20.9301L28.0202 21.4501C26.9619 23.5833 25.5484 25.5209 23.8402 27.1801L23.6602 27.3501C22.9339 28.0669 22.5175 29.0398 22.5002 30.0601V30.2501C22.4731 32.4293 23.7706 34.4071 25.7802 35.2501L26.0402 35.3601C27.3439 35.9136 28.8166 35.9136 30.1202 35.3601Z" fill="#00BD79"/>
</svg>
