<svg width="56" height="56" viewBox="0 0 56 56" fill="none" xmlns="http://www.w3.org/2000/svg">
<rect y="0.00012207" width="56" height="56" rx="16" fill="#CCFFA5"/>
<path fill-rule="evenodd" clip-rule="evenodd" d="M37.51 18.5801C36.9488 18.0235 36.1905 17.7108 35.4 17.7101C34.7152 17.7124 34.0518 17.9488 33.52 18.3801L24.15 26.0001L24 26.1501C22.694 27.4449 22.4043 29.4484 23.29 31.0601C22.9267 30.9493 22.5498 30.8887 22.17 30.8801C19.9609 30.8801 18.17 32.671 18.17 34.8801V37.3801C18.17 38.2086 18.8416 38.8801 19.67 38.8801H22.17C23.5586 38.8725 24.8439 38.1453 25.5656 36.9589C26.2872 35.7725 26.3419 34.2967 25.71 33.0601C26.1097 33.1951 26.5282 33.266 26.95 33.2701C28.0576 33.2776 29.1212 32.8377 29.9 32.0501L30 31.9401L37.67 22.5701C38.6381 21.3927 38.5693 19.6763 37.51 18.5801ZM22.21 37.3801H19.71V34.8801C19.71 33.4994 20.8293 32.3801 22.21 32.3801C23.5907 32.3801 24.71 33.4994 24.71 34.8801C24.71 36.2609 23.5907 37.3801 22.21 37.3801ZM28.88 31.0001L36.55 21.6201C37.0202 21.0312 36.9728 20.1831 36.4399 19.6502C35.9071 19.1174 35.0589 19.07 34.47 19.5401L25.1 27.2101C24.0534 28.254 24.0512 29.9486 25.095 30.9951C26.1388 32.0417 27.8334 32.044 28.88 31.0001Z" fill="#56C400"/>
<path d="M29.2 25.8301L26.2 28.8301C25.9076 29.123 25.9076 29.5973 26.2 29.8901C26.4928 30.1826 26.9672 30.1826 27.26 29.8901L30.26 26.8901C30.4607 26.7032 30.5433 26.4216 30.4754 26.1559C30.4075 25.8901 30.2 25.6826 29.9343 25.6148C29.6686 25.5469 29.387 25.6295 29.2 25.8301Z" fill="#56C400"/>
</svg>
