<svg width="56" height="56" viewBox="0 0 56 56" fill="none" xmlns="http://www.w3.org/2000/svg">
<rect y="0.00012207" width="56" height="56" rx="16" fill="#FFE4BB"/>
<path fill-rule="evenodd" clip-rule="evenodd" d="M34.5177 19.0001H28.5977C26.9409 19.0001 25.5977 20.3433 25.5977 22.0001V33.2801C25.5977 34.937 26.9409 36.2801 28.5977 36.2801H34.5177C36.1746 36.2801 37.5177 34.937 37.5177 33.2801V22.0001C37.5177 20.3433 36.1746 19.0001 34.5177 19.0001ZM27.1377 27.0001H27.9577C28.2339 27.0001 28.4577 27.224 28.4577 27.5001V27.8201C28.4577 28.0963 28.2339 28.3201 27.9577 28.3201H27.1377V27.0001ZM34.5177 34.8001C35.3461 34.8001 36.0177 34.1286 36.0177 33.3001V22.0001C36.0177 21.1717 35.3461 20.5001 34.5177 20.5001H28.5977C27.7693 20.5001 27.0977 21.1717 27.0977 22.0001V25.4801H27.9177C29.0223 25.4801 29.9177 26.3756 29.9177 27.4801V27.8001C29.9177 28.9047 29.0223 29.8001 27.9177 29.8001H27.0977V33.3001C27.0977 34.1286 27.7693 34.8001 28.5977 34.8001H34.5177Z" fill="#FF9F2F"/>
<path fill-rule="evenodd" clip-rule="evenodd" d="M18.0077 22.4201C17.8872 20.6826 19.1911 19.1733 20.9277 19.0401C22.6565 19.1887 23.9445 20.6996 23.8177 22.4301V31.7001C23.8291 32.1812 23.6968 32.6546 23.4377 33.0601L21.5677 35.9501C21.4353 36.1876 21.1846 36.3348 20.9127 36.3348C20.6408 36.3348 20.3902 36.1876 20.2577 35.9501L18.3877 33.0601C18.1345 32.652 18.0027 32.1803 18.0077 31.7001V22.4201ZM22.1677 32.2401C22.2682 32.0781 22.3202 31.8907 22.3177 31.7001L22.3377 22.4201C22.3477 21.4001 21.6977 20.5401 20.9277 20.5401C20.1677 20.5401 19.5177 21.4201 19.5177 22.4201V31.7001C19.5092 31.8888 19.5543 32.076 19.6477 32.2401L20.9077 34.2401L22.1677 32.2401Z" fill="#FF9F2F"/>
<path d="M20.9177 21.1801C20.5035 21.1801 20.1677 21.5159 20.1677 21.9301V25.3901C20.1677 25.8043 20.5035 26.1401 20.9177 26.1401C21.3319 26.1401 21.6677 25.8043 21.6677 25.3901V21.9301C21.6704 21.7304 21.5923 21.538 21.4511 21.3968C21.3098 21.2555 21.1175 21.1774 20.9177 21.1801Z" fill="#FF9F2F"/>
<path d="M34.2977 22.1401H30.9477C30.5335 22.1401 30.1977 22.4759 30.1977 22.8901C30.1977 23.3043 30.5335 23.6401 30.9477 23.6401H34.2977C34.7119 23.6401 35.0477 23.3043 35.0477 22.8901C35.0477 22.4759 34.7119 22.1401 34.2977 22.1401Z" fill="#FF9F2F"/>
</svg>
