<svg width="25" height="24" viewBox="0 0 25 24" fill="none" xmlns="http://www.w3.org/2000/svg">
<g id="Icons">
<g id="Icon">
<path fill-rule="evenodd" clip-rule="evenodd" d="M20.08 16.71L20.32 17.85C20.5474 18.8356 20.3228 19.8713 19.7076 20.6742C19.0924 21.4771 18.1508 21.9633 17.14 22H7.85997C6.84915 21.9633 5.90754 21.4771 5.29232 20.6742C4.6771 19.8713 4.45254 18.8356 4.67997 17.85L4.91997 16.71C5.19601 15.1668 6.52259 14.0327 8.08997 14H16.91C18.4774 14.0327 19.8039 15.1668 20.08 16.71ZM17.14 20.49C17.6478 20.4841 18.1256 20.2489 18.44 19.85V19.86C18.8257 19.3762 18.9759 18.7458 18.85 18.14L18.61 17C18.4768 16.1552 17.7646 15.5226 16.91 15.49H8.08998C7.23534 15.5226 6.52314 16.1552 6.38998 17L6.14998 18.14C6.02713 18.7426 6.17724 19.3687 6.55998 19.85C6.87431 20.2489 7.35219 20.4841 7.85998 20.49H17.14Z" fill="#FBFBFB"/>
<path fill-rule="evenodd" clip-rule="evenodd" d="M13 12H12C9.79082 12 7.99996 10.2092 7.99996 8.00001V5.36001C7.99729 4.46807 8.35043 3.61189 8.98113 2.98119C9.61184 2.35049 10.468 1.99735 11.36 2.00001H13.64C14.5319 1.99735 15.3881 2.35049 16.0188 2.98119C16.6495 3.61189 17.0026 4.46807 17 5.36001V8.00001C17 10.2092 15.2091 12 13 12ZM11.36 3.50002C10.3327 3.50002 9.49996 4.33277 9.49996 5.36001V8.00001C9.49996 9.38073 10.6192 10.5 12 10.5H13C14.3807 10.5 15.5 9.38073 15.5 8.00001V5.36001C15.5 4.86671 15.304 4.39361 14.9552 4.0448C14.6064 3.69598 14.1333 3.50002 13.64 3.50002H11.36Z" fill="#FBFBFB"/>
</g>
</g>
</svg>
